name Walk10.mot
datacolumns 19
datarows 20
range 2.62100000 2.64000000
endheader

                time	   L_ground_force_vx	   L_ground_force_vy	   L_ground_force_vz	   L_ground_force_px	   L_ground_force_py	   L_ground_force_pz	   R_ground_force_vx	   R_ground_force_vy	   R_ground_force_vz	   R_ground_force_px	   R_ground_force_py	   R_ground_force_pz	   L_ground_torque_x	   L_ground_torque_y	   L_ground_torque_z	   R_ground_torque_x	   R_ground_torque_y	   R_ground_torque_z	
          2.62100000	         23.15270253	        685.45313422	         43.24142068	         -0.33189504	          0.00000000	         -0.08845471	         -0.00619403	          0.16975826	          0.01907114	          0.00011018	          0.00000000	          0.00004208	          0.00000000	          1.07691250	          0.00000000	          0.00000000	         -0.00354380	          0.00000000	
          2.62200000	         23.49358781	        686.25277089	         43.36106409	         -0.33158318	          0.00000000	         -0.08850574	         -0.00712621	          0.17996672	          0.02006878	          0.00011514	          0.00000000	          0.00004388	          0.00000000	          1.07786655	          0.00000000	          0.00000000	         -0.00362924	          0.00000000	
          2.62300000	         23.83548797	        687.04803818	         43.47976952	         -0.33126941	          0.00000000	         -0.08855679	         -0.00811558	          0.19038055	          0.02107624	          0.00012009	          0.00000000	          0.00004566	          0.00000000	          1.07899797	          0.00000000	          0.00000000	         -0.00370764	          0.00000000	
          2.62400000	         24.17835455	        687.83889383	         43.59746298	         -0.33095368	          0.00000000	         -0.08860788	         -0.00916337	          0.20097584	          0.02209027	          0.00012500	          0.00000000	          0.00004742	          0.00000000	          1.08030952	          0.00000000	          0.00000000	         -0.00377801	          0.00000000	
          2.62500000	         24.52213237	        688.62529218	         43.71407502	         -0.33063593	          0.00000000	         -0.08865902	         -0.01027069	          0.21172568	          0.02310731	          0.00012984	          0.00000000	          0.00004914	          0.00000000	          1.08180387	          0.00000000	          0.00000000	         -0.00383932	          0.00000000	
          2.62600000	         24.86676041	        689.40718512	         43.82954050	         -0.33031612	          0.00000000	         -0.08871026	         -0.01143848	          0.22260004	          0.02412341	          0.00013461	          0.00000000	          0.00005082	          0.00000000	          1.08348371	          0.00000000	          0.00000000	         -0.00389047	          0.00000000	
          2.62700000	         25.21217263	        690.18452397	         43.94379834	         -0.32999420	          0.00000000	         -0.08876163	         -0.01266755	          0.23356559	          0.02513432	          0.00013926	          0.00000000	          0.00005245	          0.00000000	          1.08535182	          0.00000000	          0.00000000	         -0.00393030	          0.00000000	
          2.62800000	         25.55829862	        690.95726180	         44.05679151	         -0.32967011	          0.00000000	         -0.08881315	         -0.01395852	          0.24458550	          0.02613536	          0.00014376	          0.00000000	          0.00005402	          0.00000000	          1.08741115	          0.00000000	          0.00000000	         -0.00395761	          0.00000000	
          2.62900000	         25.90506382	        691.72535552	         44.16846702	         -0.32934381	          0.00000000	         -0.08886488	         -0.01531180	          0.25561932	          0.02712148	          0.00014810	          0.00000000	          0.00005550	          0.00000000	          1.08966490	          0.00000000	          0.00000000	         -0.00397110	          0.00000000	
          2.63000000	         26.25238951	        692.48876730	         44.27877610	         -0.32901523	          0.00000000	         -0.08891684	         -0.01672760	          0.26662278	          0.02808723	          0.00015222	          0.00000000	          0.00005689	          0.00000000	          1.09211636	          0.00000000	          0.00000000	         -0.00396946	          0.00000000	
          2.63100000	         26.60019246	        693.24746518	         44.38767432	         -0.32868434	          0.00000000	         -0.08896908	         -0.01820588	          0.27754761	          0.02902673	          0.00015610	          0.00000000	          0.00005818	          0.00000000	          1.09476879	          0.00000000	          0.00000000	         -0.00395126	          0.00000000	
          2.63200000	         26.94838454	        694.00142295	         44.49512172	         -0.32835108	          0.00000000	         -0.08902165	         -0.01974634	          0.28834138	          0.02993365	          0.00015969	          0.00000000	          0.00005935	          0.00000000	          1.09762518	          0.00000000	          0.00000000	         -0.00391505	          0.00000000	
          2.63300000	         27.29687234	        694.75061973	         44.60108273	         -0.32801540	          0.00000000	         -0.08907457	         -0.02134839	          0.29894734	          0.03080122	          0.00016296	          0.00000000	          0.00006038	          0.00000000	          1.10068806	          0.00000000	          0.00000000	         -0.00385932	          0.00000000	
          2.63400000	         27.64555709	        695.49503940	         44.70552594	         -0.32767726	          0.00000000	         -0.08912790	         -0.02301115	          0.30930423	          0.03162221	          0.00016585	          0.00000000	          0.00006126	          0.00000000	          1.10395942	          0.00000000	          0.00000000	         -0.00378246	          0.00000000	
          2.63500000	         27.99433487	        696.23466980	         44.80842376	         -0.32733661	          0.00000000	         -0.08918167	         -0.02473339	          0.31934614	          0.03238889	          0.00016834	          0.00000000	          0.00006197	          0.00000000	          1.10744077	          0.00000000	          0.00000000	         -0.00368284	          0.00000000	
          2.63600000	         28.34309730	        696.96950148	         44.90975200	         -0.32699341	          0.00000000	         -0.08923591	         -0.02651352	          0.32900232	          0.03309305	          0.00017035	          0.00000000	          0.00006248	          0.00000000	          1.11113320	          0.00000000	          0.00000000	         -0.00355875	          0.00000000	
          2.63700000	         28.69173247	        697.69952561	         45.00948952	         -0.32664763	          0.00000000	         -0.08929066	         -0.02834957	          0.33819705	          0.03372597	          0.00017186	          0.00000000	          0.00006279	          0.00000000	          1.11503760	          0.00000000	          0.00000000	         -0.00340844	          0.00000000	
          2.63800000	         29.04012580	        698.42473097	         45.10761814	         -0.32629921	          0.00000000	         -0.08934594	         -0.03023916	          0.34684948	          0.03427842	          0.00017279	          0.00000000	          0.00006286	          0.00000000	          1.11915480	          0.00000000	          0.00000000	         -0.00323008	          0.00000000	
          2.63900000	         29.38816062	        699.14510046	         45.20412242	         -0.32594814	          0.00000000	         -0.08940177	         -0.03217945	          0.35487348	          0.03474064	          0.00017309	          0.00000000	          0.00006269	          0.00000000	          1.12348572	          0.00000000	          0.00000000	         -0.00302180	          0.00000000	
          2.64000000	         29.73571846	        699.86060776	         45.29898960	         -0.32559436	          0.00000000	         -0.08945818	         -0.03416714	          0.36217752	          0.03510234	          0.00017271	          0.00000000	          0.00006223	          0.00000000	          1.12803126	          0.00000000	          0.00000000	         -0.00278170	          0.00000000	
